<svg width="110" height="133" viewBox="0 0 110 133" fill="none" xmlns="http://www.w3.org/2000/svg">
<g clip-path="url(#clip0)">
<path fill-rule="evenodd" clip-rule="evenodd" d="M56.9951 18.0569C56.1915 18.0569 54.5471 17.1218 53.5941 16.7945C55.8085 8.14476 50.6135 4.55396 52.7532 4.89995C58.2191 10.5106 54.4724 0.991211 60.938 0C61.3211 0.420797 57.3408 12.3247 57.4155 14.1575C57.4155 14.3819 56.9951 13.6619 56.9951 18.0569" fill="#D9261C"/>
<path fill-rule="evenodd" clip-rule="evenodd" d="M53.5565 34.4774C53.5565 33.0934 53.5565 33.4768 53.6686 31.8684C53.79 30.5312 53.1734 30.4564 53.0986 26.3981C54.36 27.6605 56.2754 26.5196 56.9201 26.8189C56.7706 30.1852 56.2754 29.9982 56.4623 31.9526C58.5645 30.4938 62.5822 24.4718 62.8812 27.2023C62.386 28.7358 61.2835 29.54 66.4036 28.2402C66.7867 30.606 59.6764 31.2606 57.191 35.3938C56.7706 36.1606 56.5744 35.665 56.4623 37.1518C55.9671 36.8058 54.0517 35.4686 53.5565 34.4774" fill="#D9261C"/>
<path fill-rule="evenodd" clip-rule="evenodd" d="M56.7334 47.4847C56.8082 47.3725 53.865 45.7641 52.8652 44.6139C53.2231 48.0713 53.3916 51.5458 53.3698 55.0216C53.3698 56.2466 55.6963 56.284 57.2286 57.3968C57.3407 57.3968 58.7983 53.1046 56.8082 54.18C56.6325 51.9525 56.6075 49.7156 56.7334 47.4847" fill="#D9261C"/>
<path fill-rule="evenodd" clip-rule="evenodd" d="M56.3877 65.0459C55.3911 64.6493 54.4206 64.1902 53.4819 63.6713C53.4819 65.5415 53.323 71.7786 53.7061 73.4618C53.8276 73.6956 56.2755 75.4162 56.696 75.9118C56.8081 75.4162 56.3877 65.3171 56.3877 65.0459" fill="#D9261C"/>
<path fill-rule="evenodd" clip-rule="evenodd" d="M52.5283 83.2992C53.9337 83.9128 55.1754 84.8481 56.1536 86.0297C56.2283 90.7053 57.0318 94.6794 56.4619 98.7752C55.7705 98.3544 52.8273 96.7086 52.7245 95.6707C52.9028 91.5405 52.8404 87.4034 52.5377 83.2805" fill="#D9261C"/>
<path fill-rule="evenodd" clip-rule="evenodd" d="M56.7337 104.264C56.7337 106.48 56.3132 114.784 54.7435 114.363C53.1738 113.943 52.8281 108.014 52.8281 103.273C54.0443 103.879 55.376 104.217 56.7337 104.264Z" fill="#D9261C"/>
<path fill-rule="evenodd" clip-rule="evenodd" d="M59.7975 20.086C56.2003 19.4782 54.8268 17.982 52.3228 17.7483C41.69 17.0656 40.3538 28.9695 43.9884 34.4399C45.1377 36.9647 49.8 40.0973 51.9397 42.0142C54.0842 43.898 56.3435 45.6469 58.7043 47.2508C59.3957 47.6342 58.7043 48.7096 57.4056 48.1859C57.4056 50.0561 57.7139 51.2811 57.7139 53.1513C62.722 52.8147 64.4038 51.0473 64.8616 48.56C65.9081 42.6969 56.9945 39.0312 52.3228 35.6181C45.2498 30.4563 46.8942 22.6108 51.9023 24.64C55.2659 26.7814 55.8452 24.9112 60.1245 24.453C61.6662 24.9486 68.2066 23.0316 59.7975 20.086Z" fill="#D9261C"/>
<path fill-rule="evenodd" clip-rule="evenodd" d="M52.3228 49.1304C52.5523 50.9197 52.6678 52.7219 52.6685 54.5259C50.7999 55.592 52.3228 56.1717 52.8928 56.3961C54.6587 58.0793 62.1521 58.3879 63.1705 62.9419C64.544 68.5525 58.5455 70.8622 57.6299 71.1615C57.6299 71.283 57.4804 67.421 57.3589 65.4293C57.582 65.4293 57.7958 65.3406 57.9535 65.1828C58.1112 65.0249 58.1998 64.8109 58.1998 64.5877C58.1998 64.3645 58.1112 64.1504 57.9535 63.9926C57.7958 63.8347 57.582 63.7461 57.3589 63.7461C56.5928 63.7461 50.5196 61.8759 48.2584 59.6877C44.6893 55.3675 46.7168 50.5424 52.3228 49.1304Z" fill="#D9261C"/>
<path fill-rule="evenodd" clip-rule="evenodd" d="M52.0238 66.6917L52.3228 73.0784C51.7902 73.4992 51.7529 74.1164 52.4349 74.6868C55.1913 77.1368 59.3958 78.6329 61.3112 82.3827C62.5352 85.5153 61.3112 89.7233 57.5738 90.3779C57.7706 88.5396 57.6023 86.6805 57.0786 84.9075C56.6955 83.6451 50.5382 80.4657 47.212 76.2952C44.9976 73.4899 45.8292 68.1878 52.0238 66.6917" fill="#D9261C"/>
<path fill-rule="evenodd" clip-rule="evenodd" d="M51.8747 87.6567V94.2773C51.1086 94.6233 50.9964 96.082 52.2578 96.8395C55.8924 101.206 61.0873 101.319 64.6472 102.618C63.5353 103.497 59.7138 103.236 58.3404 103.077C52.5288 102.235 48.698 100.327 47.2124 97.5315C45.3437 93.3609 48.2401 88.2739 51.8841 87.6567" fill="#D9261C"/>
<path d="M109.533 107.013C102.059 121.769 79.4383 132.551 52.903 132.532C30.1051 132.532 10.5119 119.441 0.467773 107.556C18.323 128.82 100.638 126.005 109.533 107.013" stroke="black" stroke-linecap="round" stroke-linejoin="round"/>
</g>
<defs>
<clipPath id="clip0">
<rect width="110" height="133" fill="white"/>
</clipPath>
</defs>
</svg>
