<svg width="100" height="100" viewBox="0 0 100 100" fill="none" xmlns="http://www.w3.org/2000/svg">
<path d="M72 43.3385C71.532 43.3385 71.0843 43.4235 70.6667 43.5718V43.3385C70.6667 41.1328 68.8723 39.3385 66.6667 39.3385C66.1987 39.3385 65.751 39.4235 65.3333 39.5718V38.0051C65.3333 35.7995 63.539 34.0051 61.3333 34.0051C59.1277 34.0051 57.3333 35.7995 57.3333 38.0051V39.5718C56.9157 39.4235 56.468 39.3385 56 39.3385C53.7943 39.3385 52 41.1328 52 43.3385V62.2955L47.5123 56.9658C46.1967 55.4035 43.895 55.1505 42.2713 56.3885C40.764 57.5381 40.3323 59.6121 41.237 61.2625L46.7157 76.0985C49.205 82.8401 55.453 87.3285 62.3117 87.3285C62.384 87.3285 62.4577 87.3281 62.5297 87.3271C68.255 87.2471 72.7617 84.5648 74.894 79.9678C75.6277 78.3858 75.9997 76.5315 75.9997 74.4575V47.3388C76 45.1328 74.2057 43.3385 72 43.3385ZM73.3333 74.4575C73.3333 76.1415 73.0447 77.6178 72.475 78.8461C71.4853 80.9791 68.8727 84.5718 62.493 84.6605C56.676 84.7408 51.3423 80.9291 49.2173 75.1745L43.701 60.2365C43.673 60.1601 43.638 60.0868 43.5967 60.0171C43.297 59.5128 43.423 58.8648 43.889 58.5091C44.38 58.1351 45.0753 58.2118 45.4727 58.6835L52.3137 66.8081C52.6747 67.2368 53.2647 67.3941 53.7907 67.2021C54.317 67.0101 54.667 66.5098 54.667 65.9495V43.3388C54.667 42.6035 55.265 42.0055 56.0003 42.0055C56.7357 42.0055 57.3337 42.6035 57.3337 43.3388V61.3705C57.3337 62.1068 57.9307 62.7038 58.667 62.7038C59.4033 62.7038 60.0003 62.1068 60.0003 61.3705V38.0055C60.0003 37.2701 60.5983 36.6721 61.3337 36.6721C62.069 36.6721 62.667 37.2701 62.667 38.0055V61.3705C62.667 62.1068 63.264 62.7038 64.0003 62.7038C64.7367 62.7038 65.3337 62.1068 65.3337 61.3705V43.3388C65.3337 42.6035 65.9317 42.0055 66.667 42.0055C67.4023 42.0055 68.0003 42.6035 68.0003 43.3388V61.3705C68.0003 62.1068 68.5973 62.7038 69.3337 62.7038C70.07 62.7038 70.667 62.1068 70.667 61.3705V47.3388C70.667 46.6035 71.265 46.0055 72.0003 46.0055C72.7357 46.0055 73.3337 46.6035 73.3337 47.3388L73.3333 74.4575ZM33.729 56.3885C32.1053 55.1505 29.8033 55.4038 28.488 56.9658L24 62.2955V43.3385C24 41.1328 22.2057 39.3385 20 39.3385C19.532 39.3385 19.0843 39.4235 18.6667 39.5718V38.0051C18.6667 35.7995 16.8723 34.0051 14.6667 34.0051C12.461 34.0051 10.6667 35.7995 10.6667 38.0051V39.5718C10.249 39.4235 9.80133 39.3385 9.33333 39.3385C7.12767 39.3385 5.33333 41.1328 5.33333 43.3385V43.5715C4.91567 43.4231 4.46833 43.3385 4.00067 43.3385C1.795 43.3385 0.0006663 45.1328 0.0006663 47.3385L0 74.4575C0 76.5315 0.372 78.3851 1.106 79.9678C3.238 84.5648 7.74467 87.2471 13.4703 87.3271C13.5433 87.3281 13.616 87.3285 13.6887 87.3285C20.5463 87.3285 26.7953 82.8395 29.2843 76.0985L34.763 61.2625C35.668 59.6118 35.2363 57.5381 33.729 56.3885ZM32.404 60.0168C32.3627 60.0865 32.3277 60.1601 32.2997 60.2361L26.7833 75.1741C24.6803 80.8691 19.434 84.6618 13.689 84.6615C13.6287 84.6615 13.5683 84.6611 13.5077 84.6601C7.12733 84.5711 4.51467 80.9791 3.52567 78.8458C2.95567 77.6175 2.66667 76.1408 2.66667 74.4575L2.66733 47.3388C2.66733 46.6035 3.26567 46.0055 4.001 46.0055C4.73367 46.0055 5.32967 46.6001 5.33333 47.3325V61.3705C5.33333 62.1068 5.93033 62.7038 6.66667 62.7038C7.403 62.7038 8 62.1068 8 61.3705V47.3455C8 47.3431 8.00067 47.3411 8.00067 47.3391C8.00067 47.3348 8 47.3305 8 47.3261V43.3391C8 42.6038 8.598 42.0058 9.33333 42.0058C10.0687 42.0058 10.6667 42.6038 10.6667 43.3391V61.3708C10.6667 62.1071 11.2637 62.7041 12 62.7041C12.7363 62.7041 13.3333 62.1071 13.3333 61.3708V38.0058C13.3333 37.2705 13.9313 36.6725 14.6667 36.6725C15.402 36.6725 16 37.2705 16 38.0058V61.3708C16 62.1071 16.597 62.7041 17.3333 62.7041C18.0697 62.7041 18.6667 62.1071 18.6667 61.3708V43.3391C18.6667 42.6038 19.2647 42.0058 20 42.0058C20.7353 42.0058 21.3333 42.6038 21.3333 43.3391V65.9498C21.3333 66.5101 21.6833 67.0105 22.2097 67.2025C22.7363 67.3945 23.3263 67.2371 23.6867 66.8085L30.5277 58.6838C30.925 58.2118 31.6207 58.1351 32.1117 58.5095C32.5777 58.8645 32.7037 59.5128 32.404 60.0168Z" fill="url(#paint0_linear)"/>
<path d="M30 22.3333V27.6667C30 28.403 30.5963 29 31.3333 29H34V31.6667C34 32.403 34.5963 33 35.3333 33H40.6667C41.4037 33 42 32.403 42 31.6667V29H44.6667C45.4037 29 46 28.403 46 27.6667V22.3333C46 21.597 45.4037 21 44.6667 21H42V18.3333C42 17.597 41.4037 17 40.6667 17H35.3333C34.5963 17 34 17.597 34 18.3333V21H31.3333C30.5963 21 30 21.597 30 22.3333Z" fill="url(#paint1_linear)"/>
<defs>
<linearGradient id="paint0_linear" x1="9.62457" y1="79.3033" x2="50.0411" y2="21.1111" gradientUnits="userSpaceOnUse">
<stop stop-color="#E03B8B"/>
<stop offset="0.616853" stop-color="#D9261C"/>
</linearGradient>
<linearGradient id="paint1_linear" x1="32.0262" y1="30.592" x2="44.9674" y2="17.5187" gradientUnits="userSpaceOnUse">
<stop stop-color="#E03B8B"/>
<stop offset="0.616853" stop-color="#D9261C"/>
</linearGradient>
</defs>
</svg>
