<svg width="100" height="100" viewBox="0 0 100 100" fill="none" xmlns="http://www.w3.org/2000/svg">
<g clip-path="url(#clip0)">
<path d="M7.2185 71.333C7.2185 72.0693 6.6215 72.6663 5.88517 72.6663C5.14883 72.6663 4.55183 72.0693 4.55183 71.333C4.55183 70.5967 5.14883 69.9997 5.88517 69.9997C6.6215 69.9997 7.2185 70.5967 7.2185 71.333ZM49.9685 76.1143C49.9685 73.8467 51.8135 72.0017 54.0805 72.0017C56.3488 72.0017 58.1938 73.8467 58.1938 76.1143C58.1938 78.3827 56.3488 80.2277 54.0805 80.2277C51.8135 80.2277 49.9685 78.3823 49.9685 76.1143ZM52.6352 76.1143C52.6352 76.912 53.2835 77.561 54.0805 77.561C54.8788 77.561 55.5272 76.912 55.5272 76.1143C55.5272 75.3167 54.8788 74.6683 54.0805 74.6683C53.2835 74.6683 52.6352 75.3167 52.6352 76.1143ZM68.5518 16.6663C69.2888 16.6663 69.8852 16.0693 69.8852 15.333V12.6663C69.8852 11.93 69.2888 11.333 68.5518 11.333C67.8148 11.333 67.2185 11.93 67.2185 12.6663V15.333C67.2185 16.0693 67.8148 16.6663 68.5518 16.6663ZM68.5518 19.333C67.8148 19.333 67.2185 19.93 67.2185 20.6663V23.333C67.2185 24.0693 67.8148 24.6663 68.5518 24.6663C69.2888 24.6663 69.8852 24.0693 69.8852 23.333V20.6663C69.8852 19.93 69.2888 19.333 68.5518 19.333ZM63.2185 19.333H65.8852C66.6222 19.333 67.2185 18.736 67.2185 17.9997C67.2185 17.2633 66.6222 16.6663 65.8852 16.6663H63.2185C62.4815 16.6663 61.8852 17.2633 61.8852 17.9997C61.8852 18.736 62.4815 19.333 63.2185 19.333ZM71.2185 19.333H73.8852C74.6222 19.333 75.2185 18.736 75.2185 17.9997C75.2185 17.2633 74.6222 16.6663 73.8852 16.6663H71.2185C70.4815 16.6663 69.8852 17.2633 69.8852 17.9997C69.8852 18.736 70.4815 19.333 71.2185 19.333V19.333ZM67.2005 55.2433C67.2028 55.2747 67.2185 55.3013 67.2185 55.333V76.7443C67.2185 83.318 61.8708 88.6663 55.2965 88.6663H33.8068C27.2325 88.6663 21.8848 83.318 21.8848 76.7443V69.0357L14.4135 56.5833C8.12517 55.883 3.21817 50.5407 3.21817 44.0687V37.402C3.21817 36.6657 3.8145 36.0687 4.5515 36.0687H5.88483V20.9893C5.88483 17.9807 8.2525 15.537 11.2182 15.3657V13.9997C11.2182 13.2633 11.8145 12.6663 12.5515 12.6663H15.2182C17.4238 12.6663 19.2182 14.4607 19.2182 16.6663C19.2182 18.872 17.4238 20.6663 15.2182 20.6663H12.5515C11.8145 20.6663 11.2182 20.0693 11.2182 19.333V18.0323C9.72317 18.196 8.5515 19.4513 8.5515 20.9893V36.0687H9.88483C10.6218 36.0687 11.2182 36.6657 11.2182 37.402V44.0687C11.2182 46.6037 13.2808 48.6663 15.8158 48.6663H30.6205C33.1555 48.6663 35.2182 46.6037 35.2182 44.0687V37.402C35.2182 36.6657 35.8145 36.0687 36.5515 36.0687H37.8848V20.9893C37.8848 19.4513 36.7132 18.196 35.2182 18.0323V19.333C35.2182 20.0693 34.6218 20.6663 33.8848 20.6663H31.2182C29.0125 20.6663 27.2182 18.872 27.2182 16.6663C27.2182 14.4607 29.0125 12.6663 31.2182 12.6663H33.8848C34.6218 12.6663 35.2182 13.2633 35.2182 13.9997V15.3657C38.1838 15.5367 40.5515 17.9807 40.5515 20.9893V36.0687H41.8848C42.6218 36.0687 43.2182 36.6657 43.2182 37.402V44.0687C43.2182 50.5407 38.3112 55.883 32.0228 56.5833L24.5515 69.0357V76.7443C24.5515 81.848 28.7038 85.9997 33.8068 85.9997H55.2965C60.3995 85.9997 64.5518 81.848 64.5518 76.7443V55.333C64.5518 55.3013 64.5678 55.2747 64.5698 55.2433C59.3078 54.592 55.2185 50.1017 55.2185 44.6663C55.2185 38.7847 60.0035 33.9997 65.8852 33.9997C71.7668 33.9997 76.5518 38.7847 76.5518 44.6663C76.5518 50.1017 72.4625 54.592 67.2005 55.2433V55.2433ZM32.5518 15.333H31.2185C30.4828 15.333 29.8852 15.9313 29.8852 16.6663C29.8852 17.4013 30.4828 17.9997 31.2185 17.9997H32.5518V15.333ZM13.8852 17.9997H15.2185C15.9542 17.9997 16.5518 17.4013 16.5518 16.6663C16.5518 15.9313 15.9542 15.333 15.2185 15.333H13.8852V17.9997ZM23.2185 66.0747L28.8635 56.6663H17.5735L23.2185 66.0747ZM15.8162 53.9997H30.6208C36.0975 53.9997 40.5518 49.5447 40.5518 44.0687V38.7353H37.8852V44.0687C37.8852 48.0747 34.6262 51.333 30.6208 51.333H15.8162C11.8108 51.333 8.55183 48.0747 8.55183 44.0687V38.7353H5.88517V44.0687C5.88517 49.5447 10.3395 53.9997 15.8162 53.9997V53.9997ZM73.8852 44.6663C73.8852 40.255 70.2965 36.6663 65.8852 36.6663C61.4738 36.6663 57.8852 40.255 57.8852 44.6663C57.8852 49.0777 61.4738 52.6663 65.8852 52.6663C70.2965 52.6663 73.8852 49.0777 73.8852 44.6663ZM72.5518 44.6663C72.5518 48.342 69.5608 51.333 65.8852 51.333C62.2095 51.333 59.2185 48.342 59.2185 44.6663C59.2185 40.9907 62.2095 37.9997 65.8852 37.9997C69.5608 37.9997 72.5518 40.9907 72.5518 44.6663ZM5.10383 63.885C5.44483 63.885 5.78617 63.7547 6.0465 63.4943C6.56717 62.9737 6.56717 62.1297 6.0465 61.609L5.10383 60.6663L6.0465 59.7237C6.56717 59.203 6.56717 58.359 6.0465 57.8383C5.52583 57.3177 4.68183 57.3177 4.16117 57.8383L3.2185 58.781L2.27583 57.8383C1.75517 57.3177 0.911167 57.3177 0.3905 57.8383C-0.130167 58.359 -0.130167 59.203 0.3905 59.7237L1.33317 60.6663L0.3905 61.609C-0.130167 62.1297 -0.130167 62.9737 0.3905 63.4943C0.650833 63.7547 0.992166 63.885 1.33317 63.885C1.67417 63.885 2.0155 63.7547 2.27583 63.4943L3.2185 62.5517L4.16117 63.4943C4.42183 63.755 4.76283 63.885 5.10383 63.885V63.885Z" fill="url(#paint0_linear)"/>
</g>
<defs>
<linearGradient id="paint0_linear" x1="9.6945" y1="77.0277" x2="72.2468" y2="14.4753" gradientUnits="userSpaceOnUse">
<stop stop-color="#E03B8B"/>
<stop offset="0.616853" stop-color="#D9261C"/>
</linearGradient>
<clipPath id="clip0">
<rect width="100" height="100" fill="white"/>
</clipPath>
</defs>
</svg>
