<svg width="19" height="19" viewBox="0 0 19 19" fill="none" xmlns="http://www.w3.org/2000/svg">
<path d="M2.37467 2.375H16.6247C16.8346 2.375 17.036 2.45841 17.1845 2.60687C17.3329 2.75534 17.4163 2.9567 17.4163 3.16667V15.8333C17.4163 16.0433 17.3329 16.2447 17.1845 16.3931C17.036 16.5416 16.8346 16.625 16.6247 16.625H2.37467C2.16471 16.625 1.96335 16.5416 1.81488 16.3931C1.66642 16.2447 1.58301 16.0433 1.58301 15.8333V3.16667C1.58301 2.9567 1.66642 2.75534 1.81488 2.60687C1.96335 2.45841 2.16471 2.375 2.37467 2.375ZM15.833 5.73008L9.55667 11.3509L3.16634 5.71267V15.0417H15.833V5.73008ZM3.57088 3.95833L9.54797 9.23242L15.4388 3.95833H3.57088Z" fill="#D9261C"/>
</svg>
