<svg width="19" height="22" viewBox="0 0 19 22" fill="none" xmlns="http://www.w3.org/2000/svg">
<g clip-path="url(#clip0)">
<path d="M9.4681 17.9503L12.8271 14.592C13.4914 13.9277 13.9437 13.0813 14.1269 12.16C14.3101 11.2386 14.216 10.2835 13.8565 9.41564C13.4969 8.54774 12.8881 7.80594 12.107 7.28404C11.3259 6.76214 10.4075 6.48357 9.4681 6.48357C8.52867 6.48357 7.61034 6.76214 6.82923 7.28404C6.04811 7.80594 5.43929 8.54774 5.07975 9.41564C4.72021 10.2835 4.6261 11.2386 4.80931 12.16C4.99253 13.0813 5.44484 13.9277 6.10906 14.592L9.4681 17.9503ZM13.9466 15.7115L9.4681 20.1899L4.98964 15.7115C4.10394 14.8257 3.50078 13.6972 3.25644 12.4687C3.01209 11.2401 3.13753 9.96674 3.6169 8.8095C4.09626 7.65225 4.90802 6.66314 5.94952 5.96724C6.99103 5.27134 8.2155 4.8999 9.4681 4.8999C10.7207 4.8999 11.9452 5.27134 12.9867 5.96724C14.0282 6.66314 14.8399 7.65225 15.3193 8.8095C15.7987 9.96674 15.9241 11.2401 15.6798 12.4687C15.4354 13.6972 14.8323 14.8257 13.9466 15.7115ZM3.92644 20.733H15.0098V22.3163H3.92644V20.733Z" fill="#D9261C"/>
</g>
<defs>
<clipPath id="clip0">
<rect width="19" height="22" fill="white"/>
</clipPath>
</defs>
</svg>
