<svg width="19" height="19" viewBox="0 0 19 19" fill="none" xmlns="http://www.w3.org/2000/svg">
<path d="M7.41475 8.45658C8.1576 9.76163 9.23837 10.8424 10.5434 11.5852L11.2432 10.6052C11.3558 10.4476 11.5222 10.3367 11.711 10.2935C11.8997 10.2503 12.0978 10.2778 12.2677 10.3708C13.3873 10.9827 14.6238 11.3507 15.8959 11.4507C16.0944 11.4664 16.2797 11.5564 16.4149 11.7027C16.55 11.849 16.625 12.0408 16.625 12.24V15.7724C16.625 15.9684 16.5524 16.1574 16.421 16.303C16.2897 16.4485 16.1091 16.5401 15.9141 16.5601C15.4945 16.6036 15.0718 16.625 14.6458 16.625C7.86917 16.625 2.375 11.1308 2.375 4.35417C2.375 3.92825 2.39638 3.5055 2.43992 3.08592C2.45991 2.89093 2.55153 2.71029 2.69704 2.57896C2.84255 2.44763 3.03161 2.37496 3.22763 2.375H6.76004C6.9592 2.37498 7.15104 2.45001 7.29733 2.58515C7.44362 2.72029 7.5336 2.90559 7.54933 3.10413C7.64926 4.37617 8.01727 5.61266 8.62917 6.73233C8.72216 6.9022 8.74967 7.10025 8.70649 7.28903C8.6633 7.47781 8.55243 7.64421 8.39483 7.75675L7.41475 8.45658ZM5.41817 7.93646L6.92233 6.86217C6.49545 5.94074 6.20299 4.96283 6.05387 3.95833H3.96625C3.9615 4.08975 3.95913 4.22196 3.95913 4.35417C3.95833 10.2568 8.74317 15.0417 14.6458 15.0417C14.778 15.0417 14.9103 15.0393 15.0417 15.0338V12.9461C14.0372 12.797 13.0593 12.5045 12.1378 12.0777L11.0635 13.5818C10.631 13.4138 10.2109 13.2154 9.80638 12.9881L9.76046 12.962C8.20767 12.0782 6.92176 10.7923 6.03804 9.23954L6.01192 9.19362C5.78464 8.78908 5.58622 8.36898 5.41817 7.93646Z" fill="#D9261C"/>
</svg>
