<svg width="100" height="100" viewBox="0 0 100 100" fill="none" xmlns="http://www.w3.org/2000/svg">
<g clip-path="url(#clip0)">
<path d="M63.3483 20.7795L64.291 19.8369L63.3483 18.8942C62.8277 18.3735 62.8277 17.5295 63.3483 17.0089C63.869 16.4882 64.713 16.4882 65.2337 17.0089L66.1763 17.9515L67.119 17.0089C67.6397 16.4882 68.4837 16.4882 69.0043 17.0089C69.525 17.5295 69.525 18.3735 69.0043 18.8942L68.0617 19.8369L69.0043 20.7795C69.525 21.3002 69.525 22.1442 69.0043 22.6649C68.744 22.9252 68.4027 23.0555 68.0617 23.0555C67.7207 23.0555 67.3793 22.9252 67.119 22.6649L66.1763 21.7222L65.2337 22.6649C64.9733 22.9252 64.632 23.0555 64.291 23.0555C63.95 23.0555 63.6087 22.9252 63.3483 22.6649C62.8277 22.1439 62.8277 21.3002 63.3483 20.7795V20.7795ZM9.03867 28.7312C6.77167 28.7312 4.92667 26.8862 4.92667 24.6179C4.92667 22.3509 6.77167 20.5059 9.03867 20.5059C11.307 20.5059 13.152 22.3509 13.152 24.6179C13.152 26.8862 11.3067 28.7312 9.03867 28.7312ZM9.03867 26.0645C9.837 26.0645 10.4853 25.4162 10.4853 24.6179C10.4853 23.8209 9.837 23.1725 9.03867 23.1725C8.24167 23.1725 7.59333 23.8209 7.59333 24.6179C7.59333 25.4162 8.24167 26.0645 9.03867 26.0645ZM1.51 65.6602C0.676333 65.6602 0 66.3359 0 67.1699C0 68.0035 0.676 68.6795 1.51 68.6795C2.344 68.6795 3.02 68.0035 3.02 67.1699C3.01967 66.3362 2.34367 65.6602 1.51 65.6602ZM41.51 43.1699C42.2463 43.1699 42.8433 42.5729 42.8433 41.8365C42.8433 41.1002 42.2463 40.5032 41.51 40.5032C40.7737 40.5032 40.1767 41.1002 40.1767 41.8365C40.1767 42.5729 40.7737 43.1699 41.51 43.1699ZM28.1767 40.5032C27.4403 40.5032 26.8433 41.1002 26.8433 41.8365C26.8433 42.5729 27.4403 43.1699 28.1767 43.1699C28.913 43.1699 29.51 42.5729 29.51 41.8365C29.51 41.1002 28.913 40.5032 28.1767 40.5032ZM68.8433 58.5032H63.51C62.773 58.5032 62.1767 59.0995 62.1767 59.8365C62.1767 60.5735 62.773 61.1699 63.51 61.1699H67.51V65.1699C67.51 65.9069 68.1063 66.5032 68.8433 66.5032C69.5803 66.5032 70.1767 65.9069 70.1767 65.1699V59.8365C70.1767 59.0999 69.5803 58.5032 68.8433 58.5032ZM68.8433 71.8365C68.1063 71.8365 67.51 72.4329 67.51 73.1699V77.1699H63.51C62.773 77.1699 62.1767 77.7662 62.1767 78.5032C62.1767 79.2402 62.773 79.8365 63.51 79.8365H68.8433C69.5803 79.8365 70.1767 79.2402 70.1767 78.5032V73.1699C70.1767 72.4332 69.5803 71.8365 68.8433 71.8365ZM52.8433 77.1699H48.8433V73.1699C48.8433 72.4329 48.247 71.8365 47.51 71.8365C46.773 71.8365 46.1767 72.4329 46.1767 73.1699V78.5032C46.1767 79.2402 46.773 79.8365 47.51 79.8365H52.8433C53.5803 79.8365 54.1767 79.2402 54.1767 78.5032C54.1767 77.7662 53.5803 77.1699 52.8433 77.1699ZM59.51 75.7019V86.5032C59.51 87.2402 58.9137 87.8365 58.1767 87.8365H10.1767C9.43967 87.8365 8.84333 87.2402 8.84333 86.5032V75.5359C8.84333 70.0802 11.9997 65.1192 16.8837 62.8992L27.5347 58.0582C27.5307 57.6945 27.524 57.1795 27.5163 56.4715C23.004 53.8755 19.6217 49.5999 18.2273 44.5049C17.3263 44.5049 16.502 44.2472 15.678 43.6912C14.3733 42.8109 13.5633 41.4335 13.514 40.0062C13.4683 38.7275 13.932 37.5165 14.8187 36.5962C15.4097 35.9842 16.135 35.5559 16.9307 35.3372C16.945 34.7005 16.9503 33.8345 16.945 33.0729C16.958 32.1392 16.9463 30.9765 16.9333 29.7615L16.9163 27.6222C16.8903 20.4765 20.803 16.7015 24.0897 14.7942C30.2837 11.1979 39.8357 11.3009 46.3123 15.0299C50.5247 17.4542 52.8437 21.0559 52.8437 25.1705V33.1302V33.1692C52.8217 33.9022 52.806 34.7292 52.8007 35.3529C53.6457 35.5962 54.414 36.0755 55.0077 36.7462C55.8917 37.7475 56.306 39.0872 56.1403 40.4232C55.9763 41.7565 55.139 43.0119 53.902 43.7839C53.096 44.2865 52.2847 44.5379 51.393 44.5012C49.8183 49.9802 45.9367 54.5249 40.831 56.9625C40.8273 57.3239 40.8227 57.7102 40.8173 58.0572L46.1767 60.4935V59.8372C46.1767 59.1002 46.773 58.5039 47.51 58.5039H52.8433C53.5803 58.5039 54.1767 59.1002 54.1767 59.8372C54.1767 60.5742 53.5803 61.1705 52.8433 61.1705H48.8433V61.7055L51.4697 62.8995C52.267 63.2625 53.0163 63.7259 53.732 64.2382C54.9143 63.1719 56.463 62.5039 58.1767 62.5039C61.8523 62.5039 64.8433 65.4949 64.8433 69.1705C64.8433 72.3892 62.549 75.0825 59.51 75.7019V75.7019ZM54.1767 69.1699C54.1767 71.3755 55.971 73.1699 58.1767 73.1699C60.3823 73.1699 62.1767 71.3755 62.1767 69.1699C62.1767 66.9642 60.3823 65.1699 58.1767 65.1699C55.971 65.1699 54.1767 66.9642 54.1767 69.1699ZM32.118 55.6439C33.6623 56.1425 35.3563 56.1219 37.014 55.5852L37.6027 55.3925C43.3983 53.5149 47.8043 48.6452 49.1027 42.6842C49.1847 42.3105 49.423 41.9889 49.7577 41.8025C50.091 41.6175 50.4893 41.5799 50.85 41.7115C51.454 41.9252 51.9307 41.8705 52.492 41.5202C53.052 41.1699 53.427 40.6385 53.4947 40.0969C53.5663 39.5095 53.3943 38.9472 53.009 38.5122C52.63 38.0825 52.0833 37.8365 51.5103 37.8365C51.1497 37.8365 50.8007 37.6882 50.5493 37.4302C50.2473 37.1182 50.1323 36.9979 50.1263 35.6875C47.032 37.5699 43.709 38.5589 40.3943 38.5589C39.186 38.5589 37.979 38.4299 36.785 38.1669C32.798 37.2919 29.3983 34.9975 27.238 31.7722C25.154 33.3229 22.4763 34.2319 19.6147 34.3799C19.6073 36.9562 19.4943 37.0722 19.1287 37.4389C18.8787 37.6915 18.5323 37.8359 18.177 37.8359C17.6287 37.8359 17.1183 38.0532 16.7383 38.4465C16.358 38.8412 16.159 39.3605 16.1783 39.9102C16.199 40.4792 16.5793 41.0809 17.1707 41.4792C17.8167 41.9165 18.293 41.8932 18.8087 41.7175C18.948 41.6719 19.0913 41.6485 19.2343 41.6485C19.4647 41.6485 19.6953 41.7085 19.8997 41.8255C20.2303 42.0169 20.4633 42.3399 20.5403 42.7135C21.786 48.7925 26.222 53.7469 32.118 55.6439V55.6439ZM26.055 61.6599L34.1767 74.6545L42.2983 61.6599L38.9173 60.1232C38.4107 59.8929 38.0997 59.3705 38.14 58.8145C38.1427 58.7452 38.147 58.4239 38.1517 58.0189L37.8367 58.1219C36.7063 58.4879 35.5593 58.6702 34.4277 58.6702C33.3613 58.6702 32.3103 58.5089 31.3 58.1832C30.921 58.0612 30.5657 57.8932 30.1973 57.7495C30.2037 58.2785 30.21 58.7369 30.214 58.8395C30.236 59.3812 29.929 59.8995 29.4353 60.1235L26.055 61.6599ZM11.51 85.1699H18.1767V79.8365C18.1767 79.0995 18.773 78.5032 19.51 78.5032C20.247 78.5032 20.8433 79.0995 20.8433 79.8365V85.1699H32.8433V77.5519L23.6063 62.7725L17.988 65.3262C14.053 67.1152 11.51 71.1232 11.51 75.5359V85.1699ZM56.8433 85.1699V75.7019C53.8043 75.0825 51.51 72.3892 51.51 69.1699C51.51 68.1689 51.7477 67.2279 52.1447 66.3749C51.5807 65.9742 50.9923 65.6109 50.3653 65.3262L48.8433 64.6345V65.1699C48.8433 65.9069 48.247 66.5032 47.51 66.5032C46.773 66.5032 46.1767 65.9069 46.1767 65.1699V63.4222L44.747 62.7725L35.51 77.5519V85.1699H56.8433Z" fill="url(#paint0_linear)"/>
</g>
<defs>
<linearGradient id="paint0_linear" x1="8.88715" y1="76.4478" x2="69.9664" y2="19.2266" gradientUnits="userSpaceOnUse">
<stop stop-color="#E03B8B"/>
<stop offset="0.616853" stop-color="#D9261C"/>
</linearGradient>
<clipPath id="clip0">
<rect width="100" height="100" fill="white"/>
</clipPath>
</defs>
</svg>
