<svg width="100" height="100" viewBox="0 0 100 100" fill="none" xmlns="http://www.w3.org/2000/svg">
<g clip-path="url(#clip0)">
<path d="M2.85067 72.2584C2.85067 73.0458 2.21233 73.6838 1.42533 73.6838C0.638334 73.6838 0 73.0454 0 72.2584C0 71.4714 0.638334 70.8328 1.42533 70.8328C2.21233 70.8328 2.85067 71.4711 2.85067 72.2584ZM71.6573 13.6091L72.6003 12.6665C73.121 12.1458 73.121 11.3018 72.6003 10.7811C72.0797 10.2605 71.2357 10.2605 70.715 10.7811L69.7723 11.7238L68.8297 10.7811C68.309 10.2605 67.465 10.2605 66.9443 10.7811C66.4237 11.3018 66.4237 12.1458 66.9443 12.6665L67.887 13.6091L66.9443 14.5518C66.4237 15.0725 66.4237 15.9165 66.9443 16.4371C67.2047 16.6975 67.546 16.8278 67.887 16.8278C68.228 16.8278 68.5693 16.6975 68.8297 16.4371L69.7723 15.4945L70.715 16.4371C70.9753 16.6975 71.3167 16.8278 71.6577 16.8278C71.9987 16.8278 72.34 16.6975 72.6003 16.4371C73.121 15.9165 73.121 15.0725 72.6003 14.5518L71.6573 13.6091ZM72.7473 35.7238C72.7473 37.9921 70.9023 39.8371 68.634 39.8371C66.367 39.8371 64.522 37.9921 64.522 35.7238C64.522 33.4561 66.367 31.6111 68.634 31.6111C70.9023 31.6111 72.7473 33.4561 72.7473 35.7238ZM70.0807 35.7238C70.0807 34.9261 69.4323 34.2778 68.634 34.2778C67.837 34.2778 67.1887 34.9261 67.1887 35.7238C67.1887 36.5215 67.837 37.1705 68.634 37.1705C69.4323 37.1705 70.0807 36.5211 70.0807 35.7238ZM60.4387 17.6091V86.9424C60.4387 88.4131 59.242 89.6091 57.772 89.6091H9.772C8.302 89.6091 7.10533 88.4131 7.10533 86.9424V17.6091C7.10533 16.1385 8.302 14.9425 9.772 14.9425H19.9193C20.5757 14.1358 21.5637 13.6091 22.6823 13.6091H23.3333C23.884 12.0571 25.3673 10.9425 27.1053 10.9425H40.4387C42.177 10.9425 43.66 12.0571 44.2107 13.6091H44.8617C45.9803 13.6091 46.9683 14.1358 47.6247 14.9425H57.772C59.242 14.9425 60.4387 16.1385 60.4387 17.6091ZM21.772 17.1861V20.6991C21.772 21.2011 22.181 21.6091 22.682 21.6091H44.862C45.3633 21.6091 45.772 21.2008 45.772 20.6991V17.1861C45.772 16.6841 45.363 16.2761 44.862 16.2761H43.1053C42.3683 16.2761 41.772 15.6791 41.772 14.9428C41.772 14.2078 41.1743 13.6095 40.4387 13.6095H27.1053C26.3697 13.6095 25.772 14.2078 25.772 14.9428C25.772 15.6791 25.1757 16.2761 24.4387 16.2761H22.682C22.181 16.2758 21.772 16.6841 21.772 17.1861ZM57.772 17.6091H55.1053V66.9424C55.1053 67.6788 54.509 68.2758 53.772 68.2758C53.035 68.2758 52.4387 67.6788 52.4387 66.9424V17.6091H48.4387V20.6991C48.4387 22.6711 46.8347 24.2758 44.862 24.2758H22.6823C20.7097 24.2758 19.1057 22.6711 19.1057 20.6991V17.6091H15.1057V81.6091H52.439V72.2581C52.439 71.5218 53.0353 70.9248 53.7723 70.9248C54.5093 70.9248 55.1057 71.5218 55.1057 72.2581V82.9424C55.1057 83.6788 54.5093 84.2758 53.7723 84.2758H13.7723C13.0353 84.2758 12.439 83.6788 12.439 82.9424V17.6091H9.77233V86.9424H57.7723L57.772 17.6091ZM25.772 40.2758V34.9425C25.772 34.2061 26.3683 33.6091 27.1053 33.6091H29.772V30.9425C29.772 30.2061 30.3683 29.6091 31.1053 29.6091H36.4387C37.1757 29.6091 37.772 30.2061 37.772 30.9425V33.6091H40.4387C41.1757 33.6091 41.772 34.2061 41.772 34.9425V40.2758C41.772 41.0121 41.1757 41.6091 40.4387 41.6091H37.772V44.2758C37.772 45.0121 37.1757 45.6091 36.4387 45.6091H31.1053C30.3683 45.6091 29.772 45.0121 29.772 44.2758V41.6091H27.1053C26.3683 41.6091 25.772 41.0121 25.772 40.2758ZM44.4387 50.9424H23.1053C22.3683 50.9424 21.772 51.5395 21.772 52.2758C21.772 53.0121 22.3683 53.6091 23.1053 53.6091H44.4387C45.1757 53.6091 45.772 53.0121 45.772 52.2758C45.772 51.5395 45.1757 50.9424 44.4387 50.9424ZM44.4387 54.9424H23.1053C22.3683 54.9424 21.772 55.5394 21.772 56.2758C21.772 57.0121 22.3683 57.6091 23.1053 57.6091H44.4387C45.1757 57.6091 45.772 57.0121 45.772 56.2758C45.772 55.5394 45.1757 54.9424 44.4387 54.9424ZM44.4387 58.9424H36.4387C35.7017 58.9424 35.1053 59.5394 35.1053 60.2758C35.1053 61.0121 35.7017 61.6091 36.4387 61.6091H44.4387C45.1757 61.6091 45.772 61.0121 45.772 60.2758C45.772 59.5394 45.1757 58.9424 44.4387 58.9424ZM23.1053 61.6091H32.4387C33.1757 61.6091 33.772 61.0121 33.772 60.2758C33.772 59.5394 33.1757 58.9424 32.4387 58.9424H23.1053C22.3683 58.9424 21.772 59.5394 21.772 60.2758C21.772 61.0121 22.3683 61.6091 23.1053 61.6091ZM44.4387 62.9424H23.1053C22.3683 62.9424 21.772 63.5394 21.772 64.2758C21.772 65.0121 22.3683 65.6091 23.1053 65.6091H44.4387C45.1757 65.6091 45.772 65.0121 45.772 64.2758C45.772 63.5394 45.1757 62.9424 44.4387 62.9424Z" fill="url(#paint0_linear)"/>
</g>
<defs>
<linearGradient id="paint0_linear" x1="9.24354" y1="77.6867" x2="73.1563" y2="18.1972" gradientUnits="userSpaceOnUse">
<stop stop-color="#E03B8B"/>
<stop offset="0.616853" stop-color="#D9261C"/>
</linearGradient>
<clipPath id="clip0">
<rect width="100" height="100" fill="white"/>
</clipPath>
</defs>
</svg>
